<?xml version="1.0" encoding="UTF-8" standalone="no"?>
<svg
   xmlns:dc="http://purl.org/dc/elements/1.1/"
   xmlns:cc="http://creativecommons.org/ns#"
   xmlns:rdf="http://www.w3.org/1999/02/22-rdf-syntax-ns#"
   xmlns:svg="http://www.w3.org/2000/svg"
   xmlns="http://www.w3.org/2000/svg"
   viewBox="0 0 755.84003 754.71997"
   height="754.71997"
   width="755.84003"
   xml:space="preserve"
   id="svg2"
   version="1.1"><metadata
     id="metadata8"><rdf:RDF><cc:Work
         rdf:about=""><dc:format>image/svg+xml</dc:format><dc:type
           rdf:resource="http://purl.org/dc/dcmitype/StillImage" /></cc:Work></rdf:RDF></metadata><defs
     id="defs6"><clipPath
       id="clipPath18"
       clipPathUnits="userSpaceOnUse"><path
         id="path16"
         d="M 0,566.04 H 566.88 V 0 H 0 Z" /></clipPath></defs><g
     transform="matrix(1.3333333,0,0,-1.3333333,0,754.72)"
     id="g10"><g
       id="g12"><g
         clip-path="url(#clipPath18)"
         id="g14"><g
           transform="translate(282.5566,565.0469)"
           id="g20"><path
             id="path22"
             style="fill:#ffec00;fill-opacity:1;fill-rule:evenodd;stroke:none"
             d="m 0,0 c -155.77,0 -282.047,-126.275 -282.047,-282.045 0,-155.771 126.277,-282.05 282.047,-282.05 155.772,0 282.048,126.279 282.048,282.05 C 282.048,-126.275 155.772,0 0,0" /></g><g
           transform="translate(280.3027,68.4004)"
           id="g24"><path
             id="path26"
             style="fill:#2a4090;fill-opacity:1;fill-rule:evenodd;stroke:none"
             d="m 0,0 c -4.914,-0.314 -8.858,-2.067 -11.88,-4.681 -2.642,-2.591 -4.511,-8.713 -2.76,-13.559 2.792,-7.729 11.909,-9.369 20.04,-11.401 3.518,-0.879 8.602,-2.582 6.84,-7.559 -1.342,-3.792 -7.359,-5.684 -12.48,-4.321 -4.136,1.101 -6.245,4.642 -7.079,8.88 -3.347,-0.173 -6.502,-0.538 -9.721,-0.839 0.93,-8.815 4.921,-13.754 12,-15.96 6.099,-1.901 15.213,-1.23 20.04,1.32 2.082,1.099 4.293,3.084 5.4,4.8 2.664,4.125 2.959,12.327 0,16.559 -3.945,5.644 -11.836,6.374 -19.2,8.641 -2.775,0.853 -7.501,2.059 -6.84,5.88 0.711,4.11 10.5,5.137 14.161,2.279 1.54,-1.202 2.166,-3.391 2.639,-5.399 3.381,0.059 6.574,0.305 9.96,0.36 C 21.004,-3.652 11.972,0.766 0,0 m -24.479,-3.12 c -4.364,3.206 -11.148,6.934 -18.96,6.359 -3.941,-0.29 -6.423,-1.755 -8.88,-3.719 -1.994,-2.517 -3.923,-5.391 -3.601,-10.201 0.404,-6.031 4.387,-9.298 8.64,-12.24 1.914,-1.322 4.142,-2.705 6.36,-4.079 2.221,-1.377 4.874,-2.746 5.64,-4.801 1.426,-3.82 -2.41,-6.759 -5.159,-7.08 -4.91,-0.573 -10.25,2.116 -12,5.521 -1.017,1.975 -1.031,4.087 -0.841,7.08 -3.113,0.766 -6.341,1.419 -9.6,2.04 -1.159,-4.972 -0.299,-10.433 1.8,-13.92 2.774,-4.611 8.922,-7.508 15.24,-8.88 2.203,-0.479 5.309,-1.001 7.68,-0.841 7.587,0.515 12.987,6.961 13.44,13.801 0.607,9.164 -5.76,12.473 -11.16,15.96 -1.65,1.065 -3.861,2.368 -5.88,3.72 -1.948,1.304 -4.379,3.241 -4.32,5.4 0.09,3.284 3.922,4.192 7.44,3.479 4.7,-0.952 9.24,-3.801 8.04,-9.839 3.267,-0.814 6.412,-1.748 9.72,-2.521 1.905,5.513 -0.371,11.847 -3.599,14.761 M 24,-0.36 c 2.74,-16.061 5.591,-32.01 8.4,-48 3.452,0.428 6.59,1.17 9.96,1.679 -1.241,6.72 -2.322,13.598 -3.6,20.281 6.835,1.184 13.117,2.221 19.92,3.479 -0.416,2.863 -0.953,5.607 -1.44,8.4 -6.252,-1.124 -13.08,-2.301 -19.92,-3.479 -0.585,3.821 -1.473,7.584 -1.799,11.039 7.96,1.122 14.878,2.693 22.919,3.841 C 57.938,0.037 57.67,2.786 56.76,5.399 46.229,3.433 34.783,1.462 24,-0.36 m -173.16,55.439 c -0.03,5.591 -2.942,9.64 -6.239,13.32 -3.322,3.707 -7.083,6.802 -11.641,7.92 -4.792,1.177 -9.708,-0.826 -12.12,-2.639 -3.003,-2.258 -6.245,-6.868 -5.76,-12.241 0.38,-4.204 2.662,-8.182 4.441,-11.4 0.821,-1.486 1.741,-3.203 2.759,-5.159 0.819,-1.572 2.186,-4.114 1.92,-6 -0.43,-3.063 -3.962,-3.648 -6.599,-2.28 -2.525,1.307 -6.106,5.18 -6.481,7.92 -0.39,2.847 0.943,4.332 1.92,6.12 -2.177,2.503 -4.64,4.719 -7.08,6.96 -2.861,-2.749 -4.882,-6.421 -4.439,-11.88 0.165,-2.043 0.928,-4.099 1.799,-5.761 2.661,-5.076 9.07,-11.299 15,-12.84 5.107,-1.326 10.331,1.308 12.96,4.2 0.596,1.372 1.233,1.694 1.68,2.64 3.163,6.694 -0.262,12.81 -2.88,17.761 -0.794,1.502 -1.825,2.994 -2.64,4.559 -0.869,1.67 -1.867,3.504 -2.04,5.281 -0.414,4.261 3.986,6.403 7.8,5.04 3.292,-1.177 7.166,-5.459 7.8,-8.641 0.873,-4.382 -1.097,-6.11 -2.399,-8.88 2.228,-2.291 4.743,-4.296 7.199,-6.359 2.818,3.496 5.069,7.022 5.04,12.359 m 321.721,27 c -3.64,-3.941 -7.97,-8.852 -11.76,-12.96 -3.615,-3.916 -7.869,-8.415 -7.441,-15.96 0.453,-7.979 5.435,-13.696 10.201,-17.76 4.489,-3.828 9.709,-8.278 18.119,-7.799 2.773,0.157 5.202,0.979 7.68,2.16 7.263,5.616 12.775,12.985 19.08,19.559 -11.942,10.939 -23.655,22.105 -35.879,32.76 m -351.96,16.561 c -0.74,0.419 -2.209,4.581 -3.241,4.319 -15.7,-3.975 -33.92,-8.079 -49.92,-12 1.431,-2.583 2.722,-4.477 4.32,-6.84 0.415,-0.612 1.152,-2.05 1.56,-2.16 0.572,-0.153 1.481,0.446 2.04,0.601 10.446,2.881 23.565,6.075 33.72,8.879 -7.41,-9.99 -15.325,-19.474 -22.68,-29.519 1.954,-3.047 3.783,-6.218 6,-9 10.382,13.738 20.934,27.306 31.08,41.279 -0.907,1.533 -1.92,2.96 -2.879,4.441 m 385.92,13.2 c -2.978,1.977 -7.36,4.83 -10.441,6.479 -1.587,-2.652 -3.403,-5.076 -4.92,-7.799 8.401,-5.72 17.668,-11.213 25.8,-16.8 -12.212,0.067 -24.109,0.45 -36.36,0.479 -1.723,-2.837 -3.664,-5.455 -5.28,-8.399 10.219,-6.637 20.453,-13.258 30.6,-19.8 3.398,-2.191 6.844,-4.439 10.44,-6.36 1.691,2.549 3.494,4.986 4.92,7.799 -8.649,5.791 -18.087,11.433 -26.4,17.161 12.435,-0.205 24.839,-0.443 37.2,-0.72 1.546,2.893 3.638,5.242 5.04,8.279 -9.965,6.609 -20.466,12.95 -30.599,19.681 m -418.081,32.399 c 3.306,-8.534 7.278,-16.402 10.44,-25.08 -4.147,-1.372 -7.64,-3.4 -11.76,-4.8 -2.964,7.517 -6.263,14.698 -9.36,22.08 -1.491,-0.151 -2.706,-1.023 -3.96,-1.559 -1.338,-0.573 -2.808,-0.803 -3.84,-1.801 3.065,-7.414 6.305,-14.655 9.36,-22.079 -3.03,-1.49 -6.256,-2.785 -9.48,-4.08 -2.464,5.967 -5.17,12 -7.68,17.88 -0.851,1.995 -1.445,4.151 -2.76,5.88 -2.672,-0.888 -5.012,-2.108 -7.56,-3.12 2.255,-5.639 4.598,-11.248 6.96,-16.8 2.363,-5.556 4.773,-11.05 7.32,-16.441 15.005,6.237 29.87,12.611 44.64,19.08 -4.725,11.475 -9.697,22.704 -14.52,34.08 H -204 c -2.459,-1.141 -5.034,-2.165 -7.56,-3.24 m 441.48,4.681 c -3.076,0.935 -6.258,2.184 -9.48,2.519 -1.147,0.12 -2.863,0.004 -3.48,-0.12 -7.508,-1.51 -10.623,-6.139 -13.2,-12.719 -1.138,-2.907 -2.109,-5.796 -2.28,-8.88 -0.786,-14.187 12.118,-15.952 21.96,-19.681 6.842,-2.591 13.046,-4.945 20.04,-7.08 1.178,3.022 2.434,5.967 3.241,9.36 -7.959,2.784 -16.784,6.285 -24.961,9 -2.823,0.938 -5.846,1.928 -8.039,3.361 -4.179,2.728 -3.237,9.243 -0.721,13.08 2.293,3.496 6.652,3.988 11.04,2.519 9.831,-3.289 19.575,-7.203 29.16,-10.32 1.124,3.117 2.429,6.053 3.24,9.48 -8.719,2.882 -17.594,6.764 -26.52,9.481 M -231,172.439 c -2.159,4.661 -5.243,9.052 -11.16,9.481 -6.439,0.466 -11.39,-2.483 -13.68,-6.12 -3.023,-4.802 -1.359,-11.959 -0.12,-18.24 1.295,-6.562 2.882,-12.861 3.72,-17.88 16.219,3.351 31.709,6.575 47.761,9.84 -0.62,3.34 -1.333,6.586 -2.041,9.839 -6.705,-1.159 -13.497,-2.79 -19.799,-3.96 -0.997,3.914 -1.297,7.06 0.359,9.601 1.646,2.522 4.801,5.354 7.44,8.039 1.145,1.166 2.473,2.352 3.84,3.841 0.932,1.015 3.568,3.041 3.72,4.079 0.1,0.678 -0.407,1.862 -0.6,2.881 -0.595,3.156 -1.105,6.028 -1.919,8.639 -6.15,-6.37 -13.884,-11.156 -17.521,-20.04 m 447.6,24.84 c -0.83,-4.836 -1.535,-11.019 -2.64,-16.92 -1.055,-5.63 -2.515,-12.515 -0.6,-17.28 1.37,-3.408 4.667,-6.292 8.281,-7.559 1.945,-0.683 6.702,-1.078 9.479,0.12 0.605,0.26 1.324,0.707 2.04,1.2 1.781,1.225 2.877,3.016 4.08,5.04 1.303,-4.624 5.472,-8.338 11.281,-8.28 2.961,0.029 4.888,1.181 7.079,2.28 4.837,3.75 5.532,11.099 6.72,18.479 0.846,5.254 1.778,10.513 2.401,15.481 -15.928,2.595 -32.063,5.129 -47.881,7.8 -0.168,-0.032 -0.137,-0.264 -0.24,-0.361 m -477.48,6.361 c 0.09,-3.39 0.099,-6.862 0.24,-10.201 15.897,0.744 32.568,0.712 48.72,1.201 -0.143,2.686 -0.035,6.13 -0.24,8.639 -0.04,0.495 0.334,1.533 -0.48,1.561 -15.363,-0.728 -32.269,-0.706 -48.24,-1.2 m 476.28,41.88 c 0.203,-3.318 0.284,-6.757 0.36,-10.201 6.075,0.367 13.839,0.612 20.16,0.721 0.405,-3.373 0.123,-7.078 -1.44,-8.88 -5.512,-5.048 -12.113,-9.008 -18,-13.681 0.288,-3.832 0.403,-7.837 0.6,-11.759 3.787,2.423 7.755,4.82 11.4,7.439 3.668,2.637 7.198,5.466 9.36,9.601 0.922,-4.406 2.55,-7.827 5.64,-9.84 7.196,-4.687 16.965,-0.956 19.68,4.199 1.797,3.413 1.727,9.571 1.561,14.881 -0.215,6.802 -0.367,13.753 -0.721,19.199 -16.279,-0.48 -32.167,-1.352 -48.6,-1.679 m -475.44,-2.161 c -1.091,-2.855 -2.007,-7.422 -1.8,-11.88 0.416,-8.936 4.007,-14.295 9.24,-18 2.467,-1.746 5.528,-2.963 9.36,-3.839 8.633,-1.975 17.663,-0.033 22.921,3.839 2.967,2.187 5.516,5.823 6.719,8.521 1.467,3.289 2.566,8.248 2.161,14.04 -0.469,6.687 -1.921,10.901 -4.681,15.359 -0.304,0.492 -0.853,1.618 -1.68,1.92 -1.111,0.407 -2.928,0.159 -4.32,0.241 -5.118,0.3 -9.542,0.868 -15,0.96 -0.301,-7.392 -1.165,-14.258 -1.199,-21.36 2.884,0.004 5.39,-0.369 8.279,-0.361 0.198,3.763 0.505,7.416 0.84,11.04 1.934,-0.145 3.922,-0.237 5.881,-0.36 1.36,-2.724 2.975,-5.645 3.239,-9.12 0.44,-5.804 -2.274,-10.534 -5.88,-12.719 -5.851,-3.546 -17.833,-3.133 -23.04,1.44 -1.219,1.07 -2.292,2.69 -2.88,3.96 -3.149,6.801 -0.267,16.25 7.2,17.399 -0.22,2.895 -0.829,6.314 -1.2,8.88 -0.047,0.327 0.305,1.186 -0.36,1.201 -7.427,-1.415 -11.46,-5.037 -13.8,-11.161 m 527.88,41.04 c -2.449,-0.83 -5.145,-1.415 -7.68,-2.16 0.452,-2.907 1.434,-5.286 2.04,-8.04 2.769,0.632 5.382,1.418 8.04,2.16 -0.867,2.613 -1.243,5.717 -2.4,8.04 m -2.52,9.721 c -0.238,0.789 -0.573,4.04 -1.56,3.839 -2.164,-0.439 -4.967,-1.525 -7.44,-2.04 0.507,-2.813 1.523,-5.117 2.04,-7.919 2.997,0.362 5.269,1.451 8.04,2.04 -0.191,1.46 -0.615,2.544 -1.08,4.08 m -30.96,-40.681 c 3.475,0.337 6.85,1.442 10.201,2.76 7.832,3.083 14.4,9.749 14.399,20.28 0,6.234 -2.305,12.022 -4.68,15.72 -3.546,5.523 -10.868,10.102 -20.399,9 -12.322,-1.423 -21.634,-6.394 -24.841,-16.679 -1.414,-4.537 -0.968,-10.021 0.36,-14.4 1.27,-4.189 3.004,-7.392 5.64,-10.56 4.881,-4.851 11.275,-6.899 19.32,-6.121 m -481.08,50.641 c -3.229,-11.451 -6.403,-22.957 -9.48,-34.56 15.827,-4.093 31.201,-8.64 47.04,-12.721 3.096,12.025 6.65,23.59 9.6,35.761 -2.591,0.808 -5.275,1.524 -8.04,2.16 -2.479,-8.561 -4.69,-17.39 -7.2,-25.921 -4.154,1.046 -8.19,2.21 -12.24,3.361 2.023,7.897 4.249,15.59 6.36,23.4 -2.759,0.72 -5.367,1.592 -8.28,2.16 -2.135,-7.766 -4.058,-15.577 -6.479,-23.281 -3.272,0.969 -6.871,1.61 -9.841,2.88 2.249,8.312 4.7,16.42 6.72,24.96 -2.546,0.814 -5.214,1.506 -7.919,2.16 -0.152,-0.049 -0.246,-0.154 -0.241,-0.359 m 477.6,41.759 c -3.45,-2.005 -7.144,-4.106 -10.8,-6 -3.576,-1.852 -7.016,-4.041 -10.559,-5.88 -5.342,-2.771 -10.46,-6.039 -15.72,-8.76 -1.781,-0.921 -3.604,-1.857 -5.16,-3.119 1.64,-2.84 2.987,-5.973 4.92,-8.52 6.22,3.019 11.815,6.664 18,9.719 3.164,-5.915 6.428,-11.731 9.719,-17.519 2.512,1.327 5.154,2.526 7.32,4.199 -3.023,6.058 -6.54,11.62 -9.6,17.641 3.335,1.665 6.389,3.611 9.721,5.279 3.611,-6.867 7.491,-13.468 11.16,-20.279 2.896,0.902 4.848,2.752 7.559,3.839 -2.452,5.149 -5.389,9.811 -8.04,14.76 -2.795,4.845 -5.305,9.975 -8.28,14.64 z m -451.56,0.241 c -7.313,-0.505 -12.247,-6.637 -15,-12.721 -1.122,-2.479 -1.853,-4.832 -2.04,-7.44 -0.429,-5.994 1.845,-10.542 5.88,-12.96 4.269,-2.557 10.325,-2.117 14.16,0.24 4.313,2.652 7.723,7.446 11.281,11.04 1.199,1.213 2.358,2.898 4.199,3.361 3.824,0.961 6.448,-2.519 6.48,-5.88 0.016,-1.62 -0.702,-3.769 -1.44,-5.281 -1.048,-2.149 -2.819,-4.264 -4.68,-5.279 -2.793,-1.524 -5.979,-0.688 -8.76,-0.241 -1.078,-3.121 -2.582,-5.818 -3.48,-9.12 3.016,-0.896 5.92,-2.021 9.96,-1.56 5.288,0.605 8.948,3.737 11.88,7.801 2.597,3.6 5.302,8.59 5.64,14.04 0.282,4.534 -1.095,8.445 -3.839,11.52 -3.698,3.962 -11.802,6.161 -17.521,2.879 -1.542,-0.885 -3.147,-2.341 -4.439,-3.6 -1.425,-1.386 -2.741,-2.841 -3.841,-4.199 -1.213,-1.154 -2.454,-2.743 -3.84,-4.201 -1.305,-1.373 -3.043,-3.147 -4.8,-3.359 -2.663,-0.322 -4.184,1.701 -4.2,4.079 -0.022,3.406 2.646,8.407 5.641,10.08 1.856,1.038 4.473,0.472 6.359,0.12 1.331,3.029 2.886,5.835 4.08,9 -2.256,1.14 -4.535,1.897 -7.68,1.681 m 415.08,21.239 c -2.853,-1.546 -5.19,-3.61 -7.679,-5.52 0.609,-1.407 1.593,-2.625 2.519,-3.84 2.838,-3.724 5.41,-7.549 8.401,-11.04 2.588,1.811 5.216,3.583 7.559,5.641 -3.492,5.028 -7.177,9.862 -10.8,14.759 m -355.2,37.08 c 0.598,0.644 1.488,1.566 1.44,2.04 -0.082,0.813 -2.768,2.214 -3.6,2.641 -1.261,0.647 -3.132,1.442 -4.68,1.56 -7.576,0.574 -11.714,-3.261 -15.48,-6.841 -2.788,-2.65 -5.351,-6.471 -6.24,-9.6 -1.907,-6.713 2.047,-12.262 5.881,-14.519 4.057,-2.39 9.529,-1.984 13.799,-0.12 3.654,1.594 6.637,3.791 9.96,5.52 1.177,0.612 2.4,1.346 3.6,1.68 4.408,1.225 7.52,-2.505 6.48,-6.841 -0.802,-3.345 -4.167,-6.669 -7.2,-8.04 -3.914,-1.768 -7.379,-0.109 -10.559,1.801 -2.058,-2.423 -4.172,-4.789 -6.121,-7.321 4.154,-3.51 8.349,-5.254 13.8,-4.799 5.141,0.427 8.891,3.586 12.36,6.839 3.632,3.407 6.477,7.275 7.32,11.88 0.296,1.615 0.23,3.66 0,4.801 -1.161,5.748 -5.728,10.84 -11.279,12 -5.906,1.233 -10.715,-2.034 -14.401,-3.96 -3.248,-1.698 -6.637,-4.301 -10.32,-5.161 -2.455,-0.572 -4.611,1.035 -4.8,3.121 -0.318,3.528 3.963,7.992 7.2,9.48 2.984,1.371 5.828,-0.22 7.68,-1.44 1.613,1.773 3.427,3.414 5.16,5.279 m 134.28,9.96 c -14.685,-2.437 -27.972,-5.307 -40.32,-10.08 -6.144,-2.374 -12.285,-4.656 -17.88,-7.44 -45.237,-22.505 -78.024,-55.938 -98.759,-103.079 -2.524,-5.737 -4.616,-12.018 -6.721,-18.481 -4.104,-12.601 -7.063,-26.48 -8.4,-41.88 -1.33,-15.32 -1.362,-32.805 1.08,-47.28 1.237,-7.326 2.231,-14.443 4.081,-21.119 3.683,-13.3 8.084,-25.298 13.439,-37.08 2.563,-5.638 5.807,-10.948 8.88,-16.32 3.05,-5.329 6.368,-10.589 9.96,-15.361 7.289,-9.681 14.897,-18.882 23.52,-27 4.318,-4.064 8.785,-7.988 13.44,-11.76 9.378,-7.595 19.475,-14.052 30.24,-20.16 5.364,-3.043 11.179,-5.538 17.16,-8.16 14.709,-6.447 30.844,-11.249 49.2,-13.92 17.962,-2.612 40.432,-2.774 58.68,-0.12 21.467,3.123 41.005,9.186 57.96,17.521 14.079,6.921 27.288,14.87 38.761,24.24 6.931,5.661 13.859,11.529 19.92,18 16.151,17.246 30.008,37.015 40.08,60.84 4.92,11.64 9.202,24.475 12,38.519 2.8,14.059 4.689,29.685 3.959,46.321 -0.864,19.696 -3.604,37.895 -8.88,53.639 -1.659,4.952 -3.159,9.418 -4.92,13.921 -6.485,16.587 -14.888,32.025 -24.48,45.119 -7.038,9.609 -14.834,18.899 -23.52,27 -17.356,16.188 -36.843,29.888 -60.84,40.08 -11.586,4.922 -24.385,9.266 -38.52,12 -13.823,2.675 -29.536,4.737 -45.84,3.96 -8.279,-0.394 -15.943,-0.701 -23.28,-1.92 m 212.76,-20.52 c 1.901,8.71 -3.732,15.15 -8.04,18.841 -4.349,3.992 -9.37,7.52 -18.12,6.84 -2.729,-0.213 -5.451,-1.056 -7.559,-2.041 -3.727,-1.738 -7.678,-5.113 -10.561,-8.759 -2.892,-3.658 -5.388,-8.487 -5.76,-13.68 -0.437,-6.108 1.205,-10.567 3.601,-14.28 4.886,-7.576 14.781,-13.403 25.559,-14.04 4.472,4.727 8.712,9.688 13.08,14.519 -5.169,4.831 -10.461,9.539 -15.84,14.16 -1.804,-2.076 -3.848,-3.911 -5.4,-6.239 2.617,-2.584 5.543,-4.858 8.16,-7.44 -1.399,-1.442 -2.675,-3.005 -4.08,-4.441 -8.419,1.246 -15.024,5.527 -15.719,13.801 -0.036,0.419 -0.042,0.897 0,1.319 0.363,3.686 2.275,6.988 4.679,9.96 2.344,2.897 4.851,5.473 7.8,6.84 9.568,4.438 21.979,-5.301 17.4,-15.599 2.697,-1.944 5.642,-3.639 8.64,-5.281 0.74,1.885 1.732,3.562 2.16,5.52 m -301.559,30.48 c -0.011,5.396 -3.491,10.709 -7.201,13.321 -1.814,1.277 -4.388,2.227 -6.959,2.4 -4.583,0.307 -6.832,-1.367 -9.721,-3.121 -6.333,-3.843 -12.749,-8.774 -18.48,-12.48 0.861,-1.829 2.077,-3.53 3.241,-5.16 8.305,-11.639 16.14,-23.444 24.479,-34.92 2.842,1.799 5.709,3.572 8.16,5.761 -3.295,5.065 -6.879,9.84 -10.2,14.88 6.076,5.259 16.7,8.443 16.681,19.319 m 226.199,23.64 c -6.062,-2.674 -10.244,-7.946 -13.079,-13.68 -2.431,-4.913 -4.251,-11.764 -2.641,-18 0.265,-1.023 0.67,-2.187 1.2,-3.36 3.484,-7.7 13.615,-14.874 25.08,-14.04 8.632,0.629 14.33,6.579 18.121,12.96 3.567,6.006 6.415,16.207 2.279,24.48 -1.692,3.387 -4.656,6.583 -8.279,8.88 -4.372,2.772 -9.59,5.07 -16.201,4.441 -2.815,-0.268 -4.663,-0.879 -6.48,-1.681 m -206.64,12 c -6.759,-2.917 -13.617,-6.185 -20.28,-9.12 -1.336,-0.588 -2.7,-1.158 -3.84,-2.04 6.695,-14.704 13.136,-29.664 20.04,-44.159 11.336,4.943 22.468,10.091 33.72,15.12 -1.096,2.664 -2.107,5.412 -3.6,7.679 -8.265,-3.534 -16.251,-7.348 -24.48,-10.919 -1.697,3.902 -3.582,7.617 -5.16,11.64 6.527,2.855 13.346,6.168 19.68,8.88 0.777,0.332 1.753,0.567 2.281,1.319 -1.134,2.467 -2.224,4.977 -3.361,7.44 -7.576,-3.103 -14.727,-6.632 -22.2,-9.84 -1.351,3.13 -3.067,6.533 -4.2,9.48 7.95,3.491 15.891,6.989 23.64,10.681 -1.106,2.653 -2.081,5.439 -3.6,7.679 -2.787,-1.277 -5.758,-2.596 -8.64,-3.84 m 164.401,9.601 c -4.844,-15.175 -9.746,-30.689 -14.281,-46.321 11.056,-3.263 21.832,-6.807 32.88,-10.079 0.67,2.849 1.678,5.361 2.401,8.159 -7.727,2.394 -15.516,4.725 -23.161,7.201 3.788,12.772 7.944,25.176 11.64,38.04 -3.068,1.091 -6.34,1.98 -9.479,3 m -133.08,-2.04 c -0.329,1.419 -0.194,2.437 -1.441,2.04 -2.642,-0.842 -6.138,-1.124 -8.76,-2.281 3.392,-15.848 7.229,-31.25 10.8,-46.92 8.264,2.141 17.023,3.718 25.08,5.88 2.799,0.752 5.696,1.002 8.281,2.16 -0.369,2.433 -1.198,5.443 -1.801,8.04 -7.906,-1.814 -15.815,-3.625 -23.64,-5.52 -2.543,11.059 -5.812,24.869 -8.519,36.601 m 87.359,7.679 c -1.817,-0.9 -3.694,-2.358 -5.16,-3.84 -4.626,-4.675 -7.032,-10.714 -7.68,-19.08 -0.434,-5.598 0.756,-10.28 2.52,-13.8 3.755,-7.492 11.658,-11.93 22.8,-11.759 6.403,0.097 11.979,2.822 15.241,6.239 6.031,6.321 9.814,21.439 4.559,32.161 -3.796,7.745 -12.409,12.852 -24.84,11.88 -3.107,-0.244 -5.458,-0.819 -7.44,-1.801 m -52.319,1.2 c 0.781,-16.218 1.326,-32.673 2.279,-48.719 12.369,0.813 25.427,1.037 36.841,1.799 0.062,2.944 -0.26,5.501 -0.241,8.4 -9.184,-0.331 -17.673,-0.961 -27.12,-1.199 -0.068,4.372 -0.343,8.536 -0.48,12.84 7.995,0.445 16.287,0.593 24.24,1.08 -0.043,2.917 -0.145,5.773 -0.36,8.52 -7.852,-0.589 -16.092,-0.788 -24.239,-1.08 -0.016,3.424 -0.522,6.998 -0.241,10.319 8.542,0.498 17.411,0.669 25.92,1.201 -0.511,2.569 -0.03,6.129 -0.72,8.52 -11.454,-0.796 -23.982,-0.994 -35.879,-1.681 m 27.599,14.88 c 2.379,0.233 5.747,0.126 8.64,-0.119 2.784,-0.237 5.681,-0.086 8.4,-0.241 16.425,-0.934 30.744,-3.16 44.88,-6.12 28.846,-6.039 53.264,-16.149 75.601,-28.44 7.449,-4.098 14.64,-8.42 21.599,-13.08 6.81,-4.56 13.627,-9.537 19.92,-14.759 12.684,-10.527 24.487,-21.784 34.92,-34.321 2.65,-3.183 5.411,-6.223 7.92,-9.479 22.16,-28.763 40.763,-63.934 50.76,-105.241 1.132,-4.674 2.03,-9.361 3,-14.16 0.947,-4.683 1.614,-9.47 2.4,-14.4 3.175,-19.897 3.334,-43.779 1.08,-64.56 C 272.941,146.003 260.453,111.064 244.2,81.479 236.094,66.724 226.877,52.563 216.36,39.959 211.072,33.622 205.803,27.242 200.16,21.6 176.89,-1.671 150.476,-20.979 118.801,-35.761 106.768,-41.375 94.675,-45.981 81.12,-50.16 63.612,-55.558 44.25,-59.571 23.4,-61.2 c -5.367,-0.42 -10.798,-0.603 -16.44,-0.84 -11.275,-0.475 -22.153,0.362 -32.76,1.439 -10.233,1.039 -20.269,2.848 -29.639,4.8 -18.86,3.93 -36.383,10.057 -52.441,16.92 -16.207,6.929 -30.638,15.506 -44.76,24.601 -6.907,4.448 -13.441,9.673 -19.92,14.759 -13.059,10.254 -24.308,21.816 -35.04,34.201 -10.671,12.315 -20.293,25.948 -28.799,40.559 -4.284,7.357 -8.118,14.968 -11.881,22.8 -7.527,15.666 -13.826,32.759 -18.119,51.24 -3.81,16.399 -6.701,32.825 -7.801,52.561 -2.071,37.16 4.615,69.901 13.44,97.8 8.184,25.871 20.438,49.711 34.2,69.839 9.426,13.786 19.462,26.455 30.96,38.281 22.994,23.647 50.35,42.552 81.36,57.36 7.819,3.733 16.089,7.099 24.6,10.079 10.84,3.796 21.973,7.075 33.84,9.6 11.772,2.506 23.751,4.558 37.321,5.64 5.377,0.429 10.958,0.282 16.679,0.84" /></g><g
           transform="translate(286.7832,546.48)"
           id="g28"><path
             id="path30"
             style="fill:#ffec00;fill-opacity:1;fill-rule:evenodd;stroke:none"
             d="m 0,0 c 0.689,-2.39 0.209,-5.951 0.72,-8.52 -8.509,-0.531 -17.378,-0.702 -25.92,-1.2 -0.281,-3.322 0.224,-6.895 0.24,-10.32 8.148,0.292 16.388,0.492 24.239,1.08 0.215,-2.747 0.318,-5.603 0.361,-8.52 -7.953,-0.486 -16.246,-0.634 -24.241,-1.08 0.137,-4.303 0.413,-8.468 0.481,-12.84 9.446,0.238 17.935,0.868 27.12,1.2 -0.02,-2.9 0.303,-5.457 0.24,-8.4 -11.414,-0.763 -24.471,-0.986 -36.841,-1.8 -0.953,16.046 -1.498,32.502 -2.279,48.72 C -23.982,-0.994 -11.454,-0.796 0,0" /></g><g
           transform="translate(308.5029,535.5601)"
           id="g32"><path
             id="path34"
             style="fill:#ffec00;fill-opacity:1;fill-rule:evenodd;stroke:none"
             d="m 0,0 c -2.324,-1.172 -4.556,-3.747 -5.64,-6 -2.372,-4.929 -2.916,-15.028 -0.12,-19.68 1.007,-1.677 2.94,-3.576 4.68,-4.56 6.017,-3.403 13.267,-0.839 16.44,3.36 4.369,5.779 5.262,18.672 0.36,24.12 C 13.489,-0.281 9.202,1.74 4.44,1.2 2.886,1.023 1.059,0.534 0,0 M 2.16,9.84 C 14.591,10.812 23.204,5.705 27,-2.04 c 5.255,-10.721 1.472,-25.839 -4.56,-32.16 -3.261,-3.418 -8.837,-6.142 -15.24,-6.24 -11.142,-0.17 -19.045,4.268 -22.801,11.76 -1.763,3.519 -2.953,8.201 -2.519,13.8 0.647,8.365 3.054,14.404 7.68,19.08 1.465,1.481 3.342,2.94 5.16,3.84 1.982,0.981 4.333,1.557 7.44,1.8" /></g><g
           transform="translate(224.3828,499.3198)"
           id="g36"><path
             id="path38"
             style="fill:#ffec00;fill-opacity:1;fill-rule:evenodd;stroke:none"
             d="m 0,0 c 7.825,1.895 15.734,3.706 23.64,5.52 0.603,-2.597 1.432,-5.608 1.8,-8.04 -2.585,-1.159 -5.481,-1.409 -8.28,-2.16 -8.057,-2.162 -16.816,-3.739 -25.08,-5.88 -3.571,15.669 -7.408,31.071 -10.8,46.92 2.622,1.157 6.117,1.438 8.76,2.28 1.247,0.397 1.112,-0.62 1.44,-2.04 C -5.812,24.869 -2.543,11.058 0,0" /></g><g
           transform="translate(358.4229,534.96)"
           id="g40"><path
             id="path42"
             style="fill:#ffec00;fill-opacity:1;fill-rule:evenodd;stroke:none"
             d="m 0,0 c -3.696,-12.864 -7.853,-25.267 -11.64,-38.04 7.645,-2.475 15.434,-4.806 23.161,-7.2 -0.723,-2.798 -1.731,-5.31 -2.401,-8.16 -11.048,3.272 -21.824,6.816 -32.88,10.08 4.534,15.632 9.437,31.145 14.281,46.32 C -6.34,1.98 -3.068,1.092 0,0" /></g><g
           transform="translate(312.9434,536.7598)"
           id="g44"><path
             id="path46"
             style="fill:#2a4090;fill-opacity:1;fill-rule:evenodd;stroke:none"
             d="m 0,0 c 4.762,0.541 9.049,-1.481 11.279,-3.96 4.903,-5.448 4.009,-18.34 -0.359,-24.12 -3.174,-4.198 -10.424,-6.763 -16.441,-3.36 -1.74,0.984 -3.672,2.883 -4.679,4.56 -2.796,4.652 -2.252,14.751 0.12,19.68 1.084,2.254 3.315,4.828 5.64,6 1.058,0.534 2.885,1.024 4.44,1.2" /></g><g
           transform="translate(193.1826,532.1997)"
           id="g48"><path
             id="path50"
             style="fill:#ffec00;fill-opacity:1;fill-rule:evenodd;stroke:none"
             d="m 0,0 c 1.52,-2.241 2.494,-5.026 3.601,-7.68 -7.749,-3.691 -15.691,-7.19 -23.641,-10.68 1.133,-2.948 2.85,-6.35 4.2,-9.48 7.473,3.208 14.624,6.736 22.2,9.84 1.137,-2.463 2.227,-4.974 3.361,-7.44 -0.528,-0.752 -1.504,-0.987 -2.281,-1.32 -6.334,-2.712 -13.153,-6.025 -19.68,-8.88 1.578,-4.023 3.463,-7.737 5.16,-11.64 8.229,3.572 16.215,7.386 24.48,10.92 1.493,-2.267 2.504,-5.015 3.6,-7.68 -11.252,-5.028 -22.384,-10.176 -33.72,-15.12 -6.904,14.495 -13.345,29.455 -20.04,44.16 1.14,0.881 2.504,1.452 3.84,2.04 6.663,2.935 13.521,6.203 20.28,9.12 2.882,1.244 5.853,2.563 8.64,3.84" /></g><g
           transform="translate(399.9434,508.7998)"
           id="g52"><path
             id="path54"
             style="fill:#ffec00;fill-opacity:1;fill-rule:evenodd;stroke:none"
             d="m 0,0 c -5.042,-0.502 -8.412,-3.964 -10.92,-8.04 -2.988,-4.854 -5.734,-11.942 -2.4,-17.76 2.679,-4.676 10.038,-8.65 16.679,-5.28 3.253,1.65 6.048,4.966 7.92,8.64 1.612,3.163 3.141,6.367 3.12,10.08 -0.02,3.732 -1.516,6.014 -3.599,8.4 C 7.938,-1.877 5.188,0.517 0,0 M -2.28,9.24 C 4.33,9.869 9.549,7.571 13.92,4.8 c 3.623,-2.298 6.588,-5.494 8.279,-8.88 4.136,-8.274 1.288,-18.475 -2.279,-24.48 -3.791,-6.381 -9.488,-12.332 -18.12,-12.96 -11.466,-0.834 -21.597,6.339 -25.08,14.04 -0.531,1.173 -0.936,2.337 -1.2,3.36 -1.611,6.236 0.209,13.087 2.64,18 2.835,5.734 7.018,11.005 13.079,13.68 1.818,0.802 3.665,1.412 6.481,1.68" /></g><g
           transform="translate(410.7432,504.8398)"
           id="g56"><path
             id="path58"
             style="fill:#2a4090;fill-opacity:1;fill-rule:evenodd;stroke:none"
             d="m 0,0 c 2.083,-2.386 3.579,-4.668 3.6,-8.4 0.02,-3.713 -1.509,-6.917 -3.121,-10.08 -1.872,-3.674 -4.666,-6.99 -7.919,-8.64 -6.642,-3.37 -14,0.604 -16.68,5.28 -3.334,5.818 -0.588,12.906 2.4,17.76 2.508,4.076 5.878,7.538 10.92,8.04 C -5.611,4.477 -2.861,2.083 0,0" /></g><g
           transform="translate(153.4629,488.2798)"
           id="g60"><path
             id="path62"
             style="fill:#ffec00;fill-opacity:1;fill-rule:evenodd;stroke:none"
             d="M 0,0 C 1.91,2.579 0.953,6.604 -0.96,8.4 -2.522,9.838 -5.302,10.664 -7.68,9.72 -8.462,9.41 -9.354,8.708 -10.2,8.16 -12.766,6.5 -15.664,4.803 -17.64,3 c 2.454,-3.625 5.039,-7.121 7.44,-10.8 2.586,2.065 7.865,4.647 10.2,7.8 m -5.16,-14.88 c 3.321,-5.039 6.905,-9.815 10.2,-14.88 -2.451,-2.189 -5.318,-3.961 -8.16,-5.76 -8.339,11.476 -16.174,23.281 -24.48,34.92 -1.163,1.63 -2.379,3.33 -3.24,5.16 5.731,3.705 12.147,8.637 18.48,12.48 2.889,1.753 5.137,3.427 9.72,3.12 2.572,-0.172 5.146,-1.123 6.96,-2.4 C 8.03,15.149 11.51,9.836 11.521,4.44 11.54,-6.437 0.916,-9.62 -5.16,-14.88" /></g><g
           transform="translate(143.2627,480.48)"
           id="g64"><path
             id="path66"
             style="fill:#2a4090;fill-opacity:1;fill-rule:evenodd;stroke:none"
             d="m 0,0 c -2.4,3.679 -4.985,7.175 -7.439,10.8 1.976,1.803 4.873,3.5 7.439,5.16 0.847,0.547 1.738,1.249 2.521,1.56 2.377,0.943 5.157,0.118 6.719,-1.32 1.913,-1.796 2.87,-5.821 0.96,-8.4 C 7.865,4.647 2.586,2.064 0,0" /></g><g
           transform="translate(464.3828,456.7197)"
           id="g68"><path
             id="path70"
             style="fill:#ffec00;fill-opacity:1;fill-rule:evenodd;stroke:none"
             d="m 0,0 c -2.998,1.642 -5.943,3.337 -8.64,5.28 4.578,10.299 -7.832,20.038 -17.4,15.6 -2.949,-1.368 -5.456,-3.943 -7.8,-6.84 -2.404,-2.972 -4.316,-6.274 -4.68,-9.96 -0.042,-0.422 -0.035,-0.901 0,-1.32 0.696,-8.274 7.301,-12.554 15.72,-13.8 1.404,1.436 2.681,2.999 4.08,4.44 -2.617,2.583 -5.543,4.857 -8.16,7.44 1.552,2.329 3.596,4.164 5.4,6.24 5.378,-4.621 10.671,-9.329 15.84,-14.16 -4.368,-4.832 -8.608,-9.792 -13.08,-14.52 -10.778,0.638 -20.674,6.464 -25.559,14.04 -2.396,3.713 -4.038,8.173 -3.601,14.28 0.372,5.194 2.868,10.022 5.76,13.68 2.883,3.646 6.834,7.021 10.56,8.76 2.109,0.985 4.831,1.828 7.56,2.04 8.75,0.681 13.771,-2.847 18.12,-6.84 C -1.572,20.669 4.061,14.23 2.16,5.52 1.732,3.562 0.74,1.885 0,0" /></g><g
           transform="translate(256.4229,478.7998)"
           id="g72"><path
             id="path74"
             style="fill:#ffec00;fill-opacity:1;fill-rule:evenodd;stroke:none"
             d="m 0,0 c -7.117,-1.26 -13.882,-2.377 -20.52,-3.96 -13.035,-3.107 -25.187,-7.675 -36.6,-12.96 -16.674,-7.721 -31.963,-17.782 -45.24,-28.92 -4.489,-3.766 -8.9,-7.86 -12.84,-12 -20.073,-21.091 -36.25,-46.215 -46.44,-77.28 -2.007,-6.121 -3.621,-12.612 -5.28,-19.44 -4.795,-19.73 -5.94,-45.612 -2.64,-67.08 3.34,-21.731 8.674,-40.381 16.92,-57.36 13.544,-27.891 31.225,-51.278 54.12,-69.6 4.578,-3.663 9.379,-7.014 14.28,-10.44 9.667,-6.757 20.402,-12.263 32.04,-17.52 8.456,-3.82 17.81,-6.836 27.48,-9.6 3.233,-0.924 6.548,-1.861 9.84,-2.52 13.304,-2.662 28.551,-5.184 44.16,-4.44 8.026,0.383 15.533,0.849 22.92,1.8 21.531,2.771 39.876,9.323 57.12,16.921 2.783,1.225 5.446,2.749 8.159,4.199 13.646,7.292 25.77,15.311 36.961,24.84 22.375,19.053 39.747,42.319 52.44,71.4 7.557,17.316 13.321,36.137 15.599,58.32 0.783,7.609 1.441,15.585 1.081,23.52 -1.051,23.156 -4.907,44.387 -11.64,62.28 -9.177,24.388 -21.085,44.937 -36.239,62.76 -11.434,13.446 -24.645,25.002 -39.481,34.8 -14.863,9.816 -31.242,18.549 -49.92,24.36 C 73.838,-4.049 60.685,-0.77 46.2,0.72 39.227,1.437 30.41,2.168 22.68,1.8 14.708,1.42 7.064,1.251 0,0 m 20.64,5.88 c 16.304,0.776 32.017,-1.286 45.839,-3.96 14.136,-2.734 26.935,-7.079 38.521,-12 23.997,-10.192 43.484,-23.892 60.84,-40.08 8.686,-8.102 16.482,-17.392 23.52,-27 9.592,-13.095 17.994,-28.532 24.48,-45.12 1.761,-4.503 3.261,-8.968 4.92,-13.92 5.276,-15.745 8.015,-33.944 8.88,-53.64 0.73,-16.636 -1.16,-32.262 -3.959,-46.32 -2.798,-14.044 -7.08,-26.879 -12,-38.52 -10.072,-23.825 -23.929,-43.593 -40.08,-60.84 -6.061,-6.47 -12.989,-12.338 -19.92,-18 -11.473,-9.37 -24.682,-17.319 -38.761,-24.24 -16.955,-8.335 -36.493,-14.397 -57.96,-17.52 -18.248,-2.655 -40.718,-2.492 -58.68,0.12 -18.356,2.671 -34.491,7.473 -49.2,13.92 -5.981,2.622 -11.796,5.117 -17.16,8.16 -10.765,6.107 -20.862,12.564 -30.24,20.16 -4.656,3.772 -9.122,7.695 -13.44,11.76 -8.623,8.118 -16.231,17.318 -23.52,27 -3.592,4.771 -6.91,10.031 -9.96,15.36 -3.073,5.372 -6.318,10.683 -8.88,16.321 -5.356,11.782 -9.756,23.78 -13.44,37.08 -1.849,6.675 -2.843,13.793 -4.08,21.119 -2.442,14.474 -2.41,31.96 -1.08,47.28 1.337,15.399 4.296,29.279 8.4,41.88 2.105,6.463 4.197,12.744 6.72,18.48 20.736,47.142 53.523,80.575 98.76,103.08 5.594,2.783 11.736,5.065 17.88,7.44 12.348,4.772 25.635,7.642 40.32,10.08 7.337,1.218 15.001,1.526 23.28,1.92" /></g><g
           transform="translate(403.3027,258.1201)"
           id="g76"><path
             id="path78"
             style="fill:#2a4090;fill-opacity:1;fill-rule:evenodd;stroke:none"
             d="m 0,0 c 1.484,3.048 3.148,6.043 4.44,9.239 1.312,3.249 2.422,6.615 3.72,10.08 5.093,13.605 7.673,28.621 8.28,46.201 0.601,17.409 -2.842,33.708 -7.44,47.4 -4.383,13.054 -11.733,25.427 -19.68,35.04 -8.435,10.205 -17.554,18.771 -28.679,26.16 -10.653,7.073 -23.805,12.922 -38.401,16.32 -14.11,3.285 -31.297,5.546 -49.92,4.68 -8.555,-0.398 -16.324,-1.025 -23.759,-2.28 -22.129,-3.736 -39.87,-11.372 -55.441,-22.56 -4.903,-3.524 -9.614,-7.695 -14.04,-12.12 -12.779,-12.78 -23.999,-29.417 -29.88,-48.6 -3.969,-12.947 -6.836,-28.794 -6.36,-44.76 0.75,-25.149 6.828,-45.158 15.48,-62.76 8.677,-17.652 19.647,-32.744 32.16,-46.32 0.783,-0.898 1.694,-1.666 2.4,-2.64 -0.015,-0.324 1.091,-0.574 0.48,-0.721 h -55.2 v -48.96 h 131.76 V -49.8 c -26.83,9.963 -45.535,27.579 -57,52.8 -6.73,14.805 -10.991,34.117 -9.96,55.8 0.649,13.652 2.542,26.245 6.24,37.44 3.6,10.897 8.289,20.998 14.52,29.4 6.205,8.366 13.014,15.887 22.2,21.72 9.011,5.721 19.751,10.44 33.36,10.44 19.965,0 35.051,-9.265 45.6,-19.8 10.991,-10.977 19.54,-24.616 24.841,-41.04 3.588,-11.117 5.998,-23.783 6.599,-37.44 0.481,-10.916 -0.515,-21.569 -2.04,-30.6 -0.526,-3.122 -1.115,-6.325 -1.92,-9.12 -4.951,-17.194 -12.485,-31.674 -22.799,-43.2 -10.408,-11.628 -23.77,-20.207 -39.601,-26.4 V -96.601 H 21.24 c -0.2,16.041 -0.2,32.919 0,48.96 H -34.199 C -21.203,-33.357 -8.887,-18.244 0,0 m -124.2,222.479 c 7.73,0.369 16.547,-0.362 23.52,-1.079 14.485,-1.49 27.638,-4.769 40.08,-8.64 18.678,-5.812 35.057,-14.545 49.92,-24.36 C 4.156,178.602 17.367,167.046 28.801,153.6 43.955,135.777 55.863,115.228 65.04,90.84 71.773,72.946 75.629,51.715 76.68,28.56 77.04,20.625 76.382,12.648 75.6,5.04 73.321,-17.144 67.558,-35.964 60,-53.28 47.308,-82.361 29.936,-105.627 7.561,-124.681 c -11.192,-9.528 -23.316,-17.548 -36.961,-24.84 -2.714,-1.45 -5.377,-2.973 -8.16,-4.199 -17.244,-7.597 -35.588,-14.149 -57.12,-16.921 -7.386,-0.95 -14.894,-1.417 -22.92,-1.799 -15.609,-0.745 -30.856,1.778 -44.16,4.44 -3.292,0.658 -6.607,1.596 -9.84,2.52 -9.67,2.763 -19.024,5.78 -27.48,9.6 -11.638,5.257 -22.373,10.763 -32.04,17.52 -4.901,3.425 -9.702,6.777 -14.279,10.44 -22.896,18.321 -40.577,41.709 -54.121,69.6 -8.246,16.979 -13.58,35.629 -16.919,57.36 -3.301,21.468 -2.156,47.35 2.639,67.08 1.659,6.827 3.273,13.318 5.28,19.44 10.19,31.065 26.367,56.189 46.44,77.28 3.94,4.139 8.351,8.234 12.84,12 13.277,11.138 28.566,21.199 45.24,28.92 11.413,5.285 23.565,9.852 36.601,12.96 6.637,1.582 13.402,2.7 20.519,3.96 7.065,1.251 14.708,1.42 22.68,1.799" /></g><g
           transform="translate(114.3428,467.52)"
           id="g80"><path
             id="path82"
             style="fill:#ffec00;fill-opacity:1;fill-rule:evenodd;stroke:none"
             d="m 0,0 c -1.852,1.22 -4.696,2.811 -7.68,1.44 -3.237,-1.487 -7.518,-5.952 -7.2,-9.48 0.189,-2.085 2.345,-3.693 4.8,-3.12 3.683,0.859 7.072,3.462 10.32,5.16 3.686,1.926 8.495,5.193 14.401,3.96 5.551,-1.16 10.118,-6.252 11.279,-12 0.23,-1.14 0.296,-3.186 0,-4.8 -0.843,-4.605 -3.688,-8.474 -7.32,-11.88 -3.469,-3.253 -7.219,-6.412 -12.36,-6.84 -5.451,-0.454 -9.646,1.289 -13.8,4.8 1.949,2.531 4.063,4.897 6.121,7.32 3.18,-1.91 6.645,-3.568 10.559,-1.8 3.033,1.37 6.398,4.695 7.2,8.04 1.04,4.335 -2.072,8.066 -6.48,6.84 -1.2,-0.334 -2.423,-1.068 -3.6,-1.68 -3.323,-1.729 -6.306,-3.926 -9.96,-5.52 -4.27,-1.864 -9.742,-2.27 -13.8,0.12 -3.833,2.257 -7.787,7.807 -5.88,14.52 0.889,3.128 3.452,6.949 6.24,9.6 3.766,3.579 7.904,7.415 15.48,6.84 C -0.132,11.402 1.739,10.607 3,9.96 3.832,9.533 6.518,8.132 6.6,7.32 6.648,6.846 5.758,5.923 5.16,5.28 3.427,3.415 1.613,1.773 0,0" /></g><g
           transform="translate(369.1035,210.4795)"
           id="g84"><path
             id="path86"
             style="fill:#ffec00;fill-opacity:1;fill-rule:evenodd;stroke:none"
             d="m 0,0 h 55.439 c -0.2,-16.041 -0.2,-32.919 0,-48.96 h -131.28 v 46.801 c 15.831,6.192 29.194,14.771 39.601,26.399 10.314,11.527 17.848,26.007 22.8,43.2 0.804,2.795 1.393,5.999 1.919,9.121 1.525,9.03 2.521,19.684 2.041,30.599 -0.602,13.657 -3.012,26.324 -6.6,37.441 -5.301,16.423 -13.85,30.063 -24.841,41.04 -10.549,10.535 -25.635,19.799 -45.6,19.799 -13.609,0 -24.349,-4.718 -33.36,-10.44 -9.185,-5.832 -15.995,-13.354 -22.2,-21.72 -6.231,-8.401 -10.92,-18.503 -14.52,-29.4 -3.698,-11.194 -5.59,-23.787 -6.24,-37.44 -1.031,-21.682 3.231,-40.995 9.96,-55.799 11.465,-25.221 30.17,-42.837 57,-52.8 V -48.96 h -131.76 V 0 h 55.201 c 0.61,0.146 -0.496,0.396 -0.481,0.721 -0.706,0.973 -1.617,1.742 -2.399,2.639 -12.513,13.577 -23.484,28.668 -32.16,46.321 -8.653,17.601 -14.731,37.611 -15.481,62.759 -0.476,15.966 2.392,31.814 6.36,44.76 5.881,19.184 17.101,35.821 29.88,48.6 4.426,4.426 9.137,8.597 14.04,12.12 15.572,11.188 33.312,18.824 55.441,22.56 7.435,1.256 15.204,1.882 23.76,2.28 18.623,0.867 35.809,-1.395 49.919,-4.679 14.596,-3.398 27.748,-9.247 38.401,-16.321 11.125,-7.388 20.244,-15.954 28.68,-26.159 7.946,-9.614 15.296,-21.986 19.679,-35.04 C 47.797,146.868 51.24,130.57 50.64,113.16 50.032,95.581 47.452,80.564 42.359,66.96 41.062,63.494 39.951,60.129 38.64,56.88 37.348,53.684 35.684,50.688 34.199,47.641 25.312,29.396 12.996,14.283 0,0" /></g><g
           transform="translate(485.5029,420.96)"
           id="g88"><path
             id="path90"
             style="fill:#ffec00;fill-opacity:1;fill-rule:evenodd;stroke:none"
             d="m 0,0 c -2.343,-2.058 -4.972,-3.829 -7.56,-5.64 -2.99,3.49 -5.562,7.315 -8.4,11.04 -0.926,1.214 -1.91,2.432 -2.519,3.84 2.489,1.91 4.826,3.973 7.679,5.52 C -7.177,9.862 -3.492,5.028 0,0" /></g><g
           transform="translate(67.3027,412.7998)"
           id="g92"><path
             id="path94"
             style="fill:#ffec00;fill-opacity:1;fill-rule:evenodd;stroke:none"
             d="m 0,0 c -1.194,-3.166 -2.749,-5.971 -4.08,-9 -1.886,0.352 -4.503,0.918 -6.359,-0.12 -2.995,-1.673 -5.663,-6.674 -5.641,-10.08 0.016,-2.378 1.537,-4.402 4.2,-4.08 1.757,0.213 3.495,1.987 4.8,3.36 1.386,1.458 2.627,3.046 3.84,4.2 1.1,1.358 2.416,2.813 3.841,4.2 1.292,1.258 2.897,2.715 4.439,3.6 5.719,3.282 13.823,1.082 17.521,-2.88 2.744,-3.074 4.121,-6.986 3.839,-11.52 -0.338,-5.449 -3.043,-10.44 -5.64,-14.04 -2.932,-4.064 -6.592,-7.196 -11.88,-7.8 -4.04,-0.462 -6.944,0.664 -9.96,1.56 0.898,3.302 2.402,5.998 3.48,9.12 2.781,-0.447 5.967,-1.284 8.76,0.24 1.861,1.015 3.632,3.131 4.68,5.28 0.738,1.512 1.456,3.66 1.44,5.28 -0.032,3.362 -2.656,6.841 -6.48,5.88 -1.841,-0.463 -3,-2.148 -4.199,-3.36 -3.558,-3.595 -6.968,-8.389 -11.281,-11.04 -3.835,-2.358 -9.891,-2.798 -14.16,-0.24 -4.035,2.418 -6.309,6.966 -5.88,12.96 0.187,2.608 0.918,4.961 2.04,7.44 2.753,6.084 7.687,12.216 15,12.72 C -4.535,1.897 -2.256,1.139 0,0" /></g><g
           transform="translate(511.4229,414.2397)"
           id="g96"><path
             id="path98"
             style="fill:#ffec00;fill-opacity:1;fill-rule:evenodd;stroke:none"
             d="m 0,0 c 2.975,-4.666 5.485,-9.795 8.28,-14.64 2.651,-4.949 5.588,-9.611 8.04,-14.76 -2.712,-1.088 -4.663,-2.937 -7.559,-3.84 -3.669,6.812 -7.549,13.412 -11.16,20.28 -3.332,-1.668 -6.386,-3.615 -9.721,-5.28 3.059,-6.021 6.577,-11.583 9.599,-17.64 -2.166,-1.673 -4.807,-2.872 -7.319,-4.2 -3.291,5.789 -6.556,11.605 -9.72,17.52 -6.184,-3.056 -11.779,-6.7 -18,-9.72 -1.932,2.548 -3.279,5.681 -4.919,8.52 1.556,1.262 3.378,2.199 5.16,3.12 5.259,2.721 10.378,5.989 15.719,8.76 3.544,1.838 6.984,4.027 10.56,5.88 3.656,1.894 7.35,3.995 10.8,6 z" /></g><g
           transform="translate(33.8232,372.8398)"
           id="g100"><path
             id="path102"
             style="fill:#ffec00;fill-opacity:1;fill-rule:evenodd;stroke:none"
             d="M 0,0 C 2.705,-0.654 5.373,-1.346 7.92,-2.16 5.9,-10.7 3.448,-18.809 1.2,-27.12 c 2.97,-1.27 6.569,-1.911 9.84,-2.88 2.422,7.704 4.345,15.514 6.48,23.28 2.912,-0.568 5.52,-1.44 8.28,-2.16 -2.112,-7.809 -4.337,-15.503 -6.361,-23.4 4.05,-1.151 8.086,-2.314 12.241,-3.36 2.509,8.531 4.72,17.359 7.2,25.92 2.765,-0.635 5.448,-1.352 8.04,-2.16 -2.95,-12.17 -6.505,-23.736 -9.601,-35.76 -15.839,4.08 -31.213,8.627 -47.04,12.72 3.077,11.603 6.251,23.109 9.481,34.56 C -0.246,-0.155 -0.151,-0.049 0,0" /></g><g
           transform="translate(507.8232,357.7197)"
           id="g104"><path
             id="path106"
             style="fill:#ffec00;fill-opacity:1;fill-rule:evenodd;stroke:none"
             d="m 0,0 c -2.629,-0.978 -5.366,-2.723 -6.72,-4.08 -1.574,-1.577 -3.345,-4.692 -3.6,-7.32 -0.4,-4.132 0.987,-7.71 3,-10.08 2.592,-3.054 7.271,-5.061 12.96,-4.2 2.992,0.453 6.742,1.544 9,2.64 4.106,1.994 8.646,6.408 7.92,12.72 C 21.673,-2.619 16.204,2.275 8.159,1.68 5.256,1.465 2.438,0.907 0,0 m -12.48,-29.76 c -2.636,3.168 -4.371,6.371 -5.64,10.56 -1.328,4.379 -1.775,9.864 -0.36,14.4 3.207,10.286 12.518,15.257 24.84,16.68 9.532,1.101 16.854,-3.477 20.4,-9 2.375,-3.698 4.679,-9.486 4.679,-15.72 0.001,-10.531 -6.567,-17.198 -14.399,-20.28 -3.351,-1.318 -6.726,-2.423 -10.2,-2.76 -8.045,-0.779 -14.44,1.27 -19.32,6.12" /></g><g
           transform="translate(546.7031,358.4399)"
           id="g108"><path
             id="path110"
             style="fill:#ffec00;fill-opacity:1;fill-rule:evenodd;stroke:none"
             d="m 0,0 c -2.771,-0.588 -5.043,-1.677 -8.04,-2.04 -0.518,2.803 -1.533,5.107 -2.04,7.92 2.473,0.514 5.275,1.6 7.439,2.04 C -1.653,8.121 -1.318,4.869 -1.08,4.08 -0.615,2.544 -0.191,1.46 0,0" /></g><g
           transform="translate(515.9824,359.3999)"
           id="g112"><path
             id="path114"
             style="fill:#2a4090;fill-opacity:1;fill-rule:evenodd;stroke:none"
             d="m 0,0 c 8.045,0.595 13.514,-4.299 14.4,-12 0.727,-6.312 -3.813,-10.726 -7.92,-12.72 -2.257,-1.096 -6.007,-2.187 -9,-2.64 -5.688,-0.861 -10.367,1.146 -12.959,4.2 -2.013,2.369 -3.4,5.948 -3,10.08 0.254,2.627 2.026,5.743 3.6,7.32 1.354,1.357 4.091,3.102 6.72,4.08 C -5.721,-0.773 -2.903,-0.215 0,0" /></g><g
           transform="translate(550.543,344.7598)"
           id="g116"><path
             id="path118"
             style="fill:#ffec00;fill-opacity:1;fill-rule:evenodd;stroke:none"
             d="m 0,0 c -2.658,-0.742 -5.271,-1.529 -8.04,-2.16 -0.606,2.753 -1.588,5.132 -2.04,8.04 2.535,0.745 5.23,1.329 7.68,2.16 C -1.243,5.717 -0.867,2.613 0,0" /></g><g
           transform="translate(34.0625,322.9199)"
           id="g120"><path
             id="path122"
             style="fill:#ffec00;fill-opacity:1;fill-rule:evenodd;stroke:none"
             d="m 0,0 c 0.665,-0.014 0.313,-0.874 0.36,-1.2 0.371,-2.567 0.98,-5.986 1.201,-8.88 -7.468,-1.15 -10.35,-10.598 -7.201,-17.4 0.588,-1.27 1.661,-2.889 2.88,-3.96 5.207,-4.573 17.19,-4.986 23.04,-1.44 3.607,2.186 6.321,6.915 5.88,12.72 -0.264,3.475 -1.879,6.395 -3.239,9.12 -1.959,0.122 -3.946,0.214 -5.881,0.36 -0.335,-3.625 -0.642,-7.278 -0.84,-11.04 -2.888,-0.009 -5.395,0.365 -8.279,0.36 0.034,7.103 0.898,13.968 1.199,21.36 5.459,-0.091 9.882,-0.659 15,-0.96 1.393,-0.082 3.209,0.166 4.32,-0.24 0.828,-0.302 1.376,-1.429 1.68,-1.92 2.76,-4.458 4.212,-8.673 4.681,-15.36 0.405,-5.791 -0.694,-10.751 -2.16,-14.04 -1.204,-2.698 -3.752,-6.334 -6.72,-8.52 -5.257,-3.872 -14.288,-5.814 -22.921,-3.84 -3.832,0.876 -6.893,2.094 -9.359,3.84 -5.234,3.704 -8.825,9.064 -9.241,18 -0.207,4.458 0.709,9.024 1.8,11.88 2.34,6.124 6.373,9.746 13.8,11.16" /></g><g
           transform="translate(524.2627,304.7998)"
           id="g124"><path
             id="path126"
             style="fill:#ffec00;fill-opacity:1;fill-rule:evenodd;stroke:none"
             d="m 0,0 c 0.152,-2.422 0.249,-5.261 0.36,-8.04 0.111,-2.758 0.002,-5.756 0.72,-7.68 1.309,-3.507 6.923,-4.751 9.72,-1.92 3.348,3.389 0.667,12.672 1.2,18 C 7.951,0.289 4.062,0.058 0,0 m 20.04,10.8 c 0.354,-5.446 0.506,-12.398 0.721,-19.2 0.166,-5.309 0.236,-11.467 -1.561,-14.88 -2.715,-5.156 -12.484,-8.886 -19.679,-4.199 -3.091,2.012 -4.719,5.434 -5.641,9.839 -2.162,-4.134 -5.692,-6.964 -9.359,-9.6 -3.646,-2.619 -7.614,-5.017 -11.401,-7.44 -0.197,3.922 -0.312,7.928 -0.599,11.76 5.886,4.672 12.487,8.633 18,13.68 1.562,1.803 1.844,5.508 1.439,8.88 -6.321,-0.109 -14.085,-0.353 -20.16,-0.72 -0.076,3.444 -0.157,6.882 -0.36,10.2 16.433,0.327 32.321,1.2 48.6,1.68" /></g><g
           transform="translate(536.2627,305.1602)"
           id="g128"><path
             id="path130"
             style="fill:#2a4090;fill-opacity:1;fill-rule:evenodd;stroke:none"
             d="m 0,0 c -0.533,-5.329 2.148,-14.611 -1.2,-18 -2.797,-2.832 -8.411,-1.587 -9.72,1.92 -0.718,1.924 -0.609,4.922 -0.72,7.68 -0.111,2.779 -0.208,5.618 -0.36,8.04 4.063,0.057 7.951,0.289 12,0.36" /></g><g
           transform="translate(67.6631,273.2402)"
           id="g132"><path
             id="path134"
             style="fill:#ffec00;fill-opacity:1;fill-rule:evenodd;stroke:none"
             d="M 0,0 C 0.813,-0.027 0.439,-1.065 0.479,-1.561 0.685,-4.07 0.576,-7.514 0.72,-10.2 c -16.153,-0.488 -32.824,-0.457 -48.72,-1.2 -0.142,3.338 -0.15,6.81 -0.24,10.2 15.97,0.494 32.877,0.472 48.24,1.2" /></g><g
           transform="translate(524.5029,251.2803)"
           id="g136"><path
             id="path138"
             style="fill:#ffec00;fill-opacity:1;fill-rule:evenodd;stroke:none"
             d="m 0,0 v -0.36 c -0.644,-2.913 -1.155,-6.924 -1.68,-10.201 -0.203,-1.264 -0.495,-2.585 -0.36,-3.719 0.483,-4.069 4.813,-6.395 8.76,-3.96 2.879,3.899 2.76,10.734 3.961,16.559 C 7.034,-1.207 3.69,-0.431 0,0 m -20.521,3.359 c -0.025,0.146 -0.132,0.075 -0.239,0 V 3.12 c -0.401,-2.301 -0.82,-5.005 -1.32,-7.801 -0.465,-2.6 -1.144,-5.514 -0.84,-8.04 0.391,-3.247 4.396,-6.488 8.521,-4.679 0.78,0.342 1.007,1.006 1.798,1.2 3.027,4.254 3.036,11.525 4.321,17.519 -3.944,0.781 -7.993,1.329 -12.241,2.04 M -27.36,14.76 C -11.542,12.089 4.593,9.555 20.521,6.96 19.897,1.992 18.966,-3.267 18.12,-8.521 16.932,-15.901 16.236,-23.25 11.399,-27 c -2.19,-1.099 -4.117,-2.251 -7.079,-2.28 -5.808,-0.058 -9.977,3.656 -11.28,8.28 -1.203,-2.023 -2.299,-3.814 -4.08,-5.04 -0.716,-0.493 -1.436,-0.939 -2.04,-1.2 -2.777,-1.197 -7.534,-0.803 -9.48,-0.12 -3.613,1.267 -6.91,4.151 -8.28,7.559 -1.915,4.765 -0.455,11.65 0.6,17.28 1.105,5.901 1.809,12.084 2.639,16.92 0.104,0.097 0.073,0.33 0.241,0.361" /></g><g
           transform="translate(41.1426,239.04)"
           id="g140"><path
             id="path142"
             style="fill:#ffec00;fill-opacity:1;fill-rule:evenodd;stroke:none"
             d="m 0,0 c -2.345,1.934 -7.225,0.771 -8.64,-1.32 -1.404,-2.077 -0.793,-4.198 -0.36,-6.72 0.651,-3.798 1.632,-7.562 2.16,-11.16 4.367,0.57 7.56,1.573 11.76,2.28 C 3.453,-12.251 3.299,-2.72 0,0 m 25.681,21.84 c 0.814,-2.611 1.324,-5.484 1.92,-8.64 C 27.793,12.182 28.3,10.997 28.2,10.319 28.048,9.281 25.412,7.255 24.48,6.24 23.113,4.751 21.785,3.565 20.641,2.399 18.001,-0.286 14.846,-3.117 13.2,-5.64 c -1.656,-2.541 -1.356,-5.686 -0.359,-9.6 6.303,1.17 13.095,2.801 19.8,3.96 0.707,-3.253 1.421,-6.499 2.04,-9.84 -16.052,-3.265 -31.541,-6.488 -47.761,-9.84 -0.838,5.02 -2.425,11.318 -3.72,17.88 -1.239,6.281 -2.903,13.438 0.12,18.24 2.29,3.637 7.242,6.586 13.68,6.12 5.917,-0.428 9.001,-4.82 11.16,-9.48 3.637,8.884 11.371,13.67 17.521,20.04" /></g><g
           transform="translate(516.2227,252.5996)"
           id="g144"><path
             id="path146"
             style="fill:#2a4090;fill-opacity:1;fill-rule:evenodd;stroke:none"
             d="m 0,0 c -1.285,-5.994 -1.294,-13.266 -4.32,-17.52 -0.791,-0.193 -1.019,-0.857 -1.799,-1.2 -4.125,-1.808 -8.13,1.433 -8.521,4.68 -0.303,2.525 0.375,5.439 0.84,8.04 0.5,2.796 0.919,5.5 1.321,7.801 V 2.04 c 0.106,0.074 0.213,0.146 0.239,0 C -7.993,1.329 -3.943,0.78 0,0" /></g><g
           transform="translate(535.1836,249.5996)"
           id="g148"><path
             id="path150"
             style="fill:#2a4090;fill-opacity:1;fill-rule:evenodd;stroke:none"
             d="m 0,0 c -1.2,-5.825 -1.082,-12.66 -3.961,-16.56 -3.946,-2.434 -8.276,-0.108 -8.76,3.96 -0.134,1.134 0.158,2.455 0.361,3.72 0.524,3.276 1.036,7.287 1.679,10.2 V 1.681 C -6.99,1.25 -3.646,0.474 0,0" /></g><g
           transform="translate(46.0625,222.1201)"
           id="g152"><path
             id="path154"
             style="fill:#2a4090;fill-opacity:1;fill-rule:evenodd;stroke:none"
             d="m 0,0 c -4.2,-0.707 -7.393,-1.71 -11.76,-2.28 -0.528,3.598 -1.509,7.362 -2.16,11.16 -0.433,2.522 -1.044,4.642 0.36,6.72 1.415,2.091 6.295,3.254 8.64,1.32 C -1.621,14.2 -1.467,4.669 0,0" /></g><g
           transform="translate(536.7432,207.8398)"
           id="g156"><path
             id="path158"
             style="fill:#ffec00;fill-opacity:1;fill-rule:evenodd;stroke:none"
             d="m 0,0 c -0.812,-3.428 -2.116,-6.363 -3.24,-9.48 -9.585,3.117 -19.329,7.031 -29.16,10.32 -4.388,1.469 -8.747,0.976 -11.04,-2.52 -2.516,-3.837 -3.458,-10.351 0.72,-13.08 2.194,-1.432 5.217,-2.423 8.039,-3.36 8.178,-2.716 17.002,-6.217 24.961,-9 -0.806,-3.394 -2.062,-6.338 -3.24,-9.36 -6.994,2.134 -13.198,4.489 -20.04,7.08 -9.843,3.728 -22.746,5.494 -21.96,19.68 0.171,3.084 1.142,5.974 2.279,8.88 2.577,6.58 5.693,11.209 13.201,12.72 0.617,0.124 2.333,0.239 3.48,0.12 3.222,-0.335 6.403,-1.584 9.479,-2.52 C -17.595,6.764 -8.72,2.882 0,0" /></g><g
           transform="translate(76.3027,215.8799)"
           id="g160"><path
             id="path162"
             style="fill:#ffec00;fill-opacity:1;fill-rule:evenodd;stroke:none"
             d="m 0,0 h 0.24 c 4.823,-11.377 9.795,-22.605 14.52,-34.08 -14.77,-6.47 -29.635,-12.844 -44.64,-19.08 -2.547,5.39 -4.957,10.885 -7.32,16.44 -2.362,5.552 -4.705,11.161 -6.96,16.8 2.548,1.013 4.888,2.233 7.56,3.12 1.315,-1.728 1.909,-3.885 2.76,-5.88 2.51,-5.88 5.216,-11.913 7.68,-17.88 3.224,1.295 6.45,2.59 9.48,4.081 -3.055,7.423 -6.295,14.665 -9.36,22.079 1.032,0.998 2.502,1.227 3.84,1.8 1.254,0.537 2.469,1.409 3.96,1.56 3.097,-7.383 6.396,-14.564 9.36,-22.08 4.12,1.399 7.613,3.428 11.76,4.8 -3.162,8.677 -7.134,16.546 -10.44,25.08 2.526,1.075 5.101,2.098 7.56,3.24" /></g><g
           transform="translate(517.4229,160.5596)"
           id="g164"><path
             id="path166"
             style="fill:#ffec00;fill-opacity:1;fill-rule:evenodd;stroke:none"
             d="m 0,0 c -1.402,-3.037 -3.494,-5.386 -5.04,-8.279 -12.361,0.277 -24.765,0.514 -37.2,0.719 8.313,-5.727 17.751,-11.369 26.4,-17.16 -1.427,-2.813 -3.229,-5.25 -4.92,-7.8 -3.596,1.921 -7.042,4.169 -10.44,6.361 -10.147,6.542 -20.381,13.163 -30.6,19.8 1.615,2.944 3.557,5.562 5.279,8.399 12.251,-0.029 24.149,-0.412 36.361,-0.479 -8.132,5.586 -17.4,11.08 -25.8,16.799 1.517,2.724 3.333,5.148 4.92,7.8 3.081,-1.649 7.463,-4.502 10.44,-6.479 C -20.466,12.95 -9.965,6.608 0,0" /></g><g
           transform="translate(103.7832,162.5996)"
           id="g168"><path
             id="path170"
             style="fill:#ffec00;fill-opacity:1;fill-rule:evenodd;stroke:none"
             d="m 0,0 c -10.146,-13.974 -20.699,-27.541 -31.08,-41.279 -2.218,2.782 -4.046,5.953 -6,9 7.354,10.045 15.27,19.529 22.68,29.519 -10.156,-2.804 -23.275,-5.998 -33.72,-8.88 -0.559,-0.154 -1.469,-0.754 -2.04,-0.6 -0.408,0.11 -1.146,1.548 -1.561,2.16 -1.597,2.363 -2.888,4.257 -4.319,6.84 16,3.921 34.219,8.025 49.92,12 1.031,0.261 2.501,-3.901 3.24,-4.32 C -1.92,2.96 -0.907,1.533 0,0" /></g><g
           transform="translate(452.3828,137.5195)"
           id="g172"><path
             id="path174"
             style="fill:#ffec00;fill-opacity:1;fill-rule:evenodd;stroke:none"
             d="M 0,0 C -1.289,-1.546 -2.894,-3.1 -4.439,-4.8 -5.858,-6.359 -7.5,-8.01 -8.4,-9.6 c -0.782,-1.382 -1.484,-3.383 -1.2,-5.519 0.231,-1.739 1.766,-4.446 3,-6 1.608,-2.027 4.188,-4.357 6.6,-6.36 2.533,-2.106 5.328,-4.143 8.52,-4.441 5.671,-0.528 8.531,3.511 11.041,6.24 1.278,1.391 2.626,2.804 3.959,4.321 C 15.503,-14.417 7.946,-7.014 0,0 m 36.36,-19.8 c -6.305,-6.574 -11.817,-13.943 -19.08,-19.559 -2.478,-1.181 -4.907,-2.003 -7.68,-2.161 -8.411,-0.478 -13.63,3.972 -18.12,7.8 -4.765,4.064 -9.747,9.781 -10.2,17.76 -0.428,7.545 3.825,12.044 7.441,15.96 3.79,4.107 8.12,9.019 11.759,12.96 C 12.705,2.305 24.418,-8.861 36.36,-19.8" /></g><g
           transform="translate(126.1025,111.1201)"
           id="g176"><path
             id="path178"
             style="fill:#ffec00;fill-opacity:1;fill-rule:evenodd;stroke:none"
             d="m 0,0 c -2.456,2.063 -4.971,4.068 -7.199,6.359 1.303,2.77 3.272,4.498 2.399,8.88 -0.634,3.182 -4.508,7.464 -7.8,8.641 -3.814,1.363 -8.213,-0.778 -7.799,-5.04 0.172,-1.777 1.17,-3.611 2.04,-5.28 0.814,-1.566 1.845,-3.058 2.639,-4.56 2.618,-4.951 6.043,-11.066 2.88,-17.761 -0.447,-0.946 -1.083,-1.267 -1.68,-2.639 -2.628,-2.893 -7.853,-5.527 -12.959,-4.201 -5.931,1.541 -12.339,7.764 -15,12.84 -0.872,1.662 -1.635,3.718 -1.8,5.761 -0.443,5.459 1.578,9.131 4.439,11.88 2.441,-2.24 4.903,-4.457 7.08,-6.96 -0.976,-1.788 -2.309,-3.273 -1.92,-6.12 0.375,-2.739 3.956,-6.612 6.481,-7.92 2.637,-1.367 6.169,-0.782 6.599,2.28 0.266,1.886 -1.101,4.428 -1.92,6 -1.018,1.956 -1.938,3.673 -2.759,5.159 -1.779,3.218 -4.061,7.197 -4.441,11.401 -0.485,5.372 2.757,9.982 5.76,12.24 2.412,1.813 7.328,3.816 12.12,2.64 4.558,-1.119 8.319,-4.213 11.641,-7.92 C 2.099,21.999 5.01,17.95 5.04,12.359 5.069,7.022 2.818,3.496 0,0" /></g><g
           transform="translate(475.9023,116.1602)"
           id="g180"><path
             id="path182"
             style="fill:#2a4090;fill-opacity:1;fill-rule:evenodd;stroke:none"
             d="m 0,0 c -1.333,-1.517 -2.681,-2.93 -3.959,-4.32 -2.51,-2.73 -5.369,-6.769 -11.041,-6.241 -3.191,0.298 -5.986,2.335 -8.52,4.441 -2.412,2.004 -4.992,4.334 -6.599,6.36 -1.235,1.554 -2.77,4.261 -3,6 -0.284,2.136 0.418,4.137 1.199,5.52 0.9,1.59 2.542,3.24 3.961,4.8 1.546,1.7 3.15,3.253 4.439,4.799 C -15.573,14.346 -8.017,6.942 0,0" /></g><g
           transform="translate(337.0625,73.7998)"
           id="g184"><path
             id="path186"
             style="fill:#ffec00;fill-opacity:1;fill-rule:evenodd;stroke:none"
             d="m 0,0 c 0.91,-2.613 1.179,-5.362 1.681,-8.52 -8.041,-1.147 -14.959,-2.718 -22.92,-3.84 0.326,-3.455 1.215,-7.218 1.8,-11.039 6.839,1.177 13.668,2.355 19.919,3.479 0.487,-2.794 1.024,-5.537 1.44,-8.4 -6.803,-1.258 -13.085,-2.295 -19.92,-3.48 1.278,-6.682 2.359,-13.56 3.601,-20.28 -3.371,-0.51 -6.509,-1.251 -9.96,-1.68 -2.81,15.99 -5.661,31.94 -8.401,48 C -21.977,-3.938 -10.53,-1.967 0,0" /></g><g
           transform="translate(259.4229,50.5195)"
           id="g188"><path
             id="path190"
             style="fill:#ffec00;fill-opacity:1;fill-rule:evenodd;stroke:none"
             d="m 0,0 c -3.308,0.772 -6.453,1.707 -9.72,2.521 1.199,6.038 -3.341,8.887 -8.04,9.839 -3.518,0.713 -7.35,-0.195 -7.44,-3.479 -0.059,-2.159 2.372,-4.096 4.32,-5.401 2.019,-1.351 4.23,-2.654 5.88,-3.719 5.399,-3.488 11.767,-6.796 11.16,-15.96 -0.453,-6.84 -5.853,-13.286 -13.44,-13.801 -2.371,-0.16 -5.477,0.362 -7.68,0.841 -6.318,1.372 -12.466,4.269 -15.24,8.88 -2.099,3.487 -2.959,8.948 -1.8,13.92 3.259,-0.621 6.487,-1.274 9.6,-2.04 -0.19,-2.994 -0.176,-5.105 0.84,-7.08 1.75,-3.405 7.091,-6.094 12,-5.521 2.75,0.321 6.585,3.26 5.16,7.08 -0.767,2.055 -3.419,3.424 -5.64,4.801 -2.218,1.374 -4.446,2.757 -6.36,4.079 -4.253,2.941 -8.236,6.209 -8.64,12.24 -0.322,4.81 1.607,7.684 3.601,10.2 2.457,1.965 4.939,3.43 8.879,3.72 7.813,0.575 14.597,-3.153 18.96,-6.359 C -0.371,11.847 1.905,5.513 0,0" /></g><g
           transform="translate(301.4229,53.4004)"
           id="g192"><path
             id="path194"
             style="fill:#ffec00;fill-opacity:1;fill-rule:evenodd;stroke:none"
             d="m 0,0 c -3.386,-0.055 -6.579,-0.301 -9.96,-0.36 -0.474,2.008 -1.1,4.197 -2.64,5.399 -3.66,2.858 -13.449,1.831 -14.16,-2.279 -0.661,-3.821 4.065,-5.027 6.84,-5.88 7.364,-2.267 15.255,-2.997 19.2,-8.641 2.959,-4.232 2.664,-12.434 0,-16.559 -1.107,-1.716 -3.318,-3.701 -5.4,-4.8 -4.827,-2.55 -13.942,-3.221 -20.04,-1.32 -7.079,2.206 -11.07,7.145 -12,15.96 3.219,0.301 6.374,0.666 9.721,0.839 0.834,-4.238 2.943,-7.779 7.079,-8.88 5.121,-1.363 11.138,0.529 12.48,4.321 1.762,4.977 -3.322,6.68 -6.84,7.559 -8.132,2.032 -17.248,3.672 -20.04,11.401 -1.751,4.846 0.117,10.968 2.76,13.559 3.021,2.614 6.966,4.367 11.88,4.681 C -9.148,15.766 -0.116,11.348 0,0" /></g></g></g></g></svg>